<svg width="71" height="71" viewBox="0 0 71 71" fill="none" xmlns="http://www.w3.org/2000/svg">
<g clip-path="url(#clip0_22_508)">
<path d="M50.0869 20.624C41.9846 12.5217 28.7263 12.5217 20.6241 20.624C12.5218 28.7262 12.5218 41.9845 20.6241 50.0867C28.7263 58.189 41.9846 58.189 50.0869 50.0867C58.1891 41.9845 58.1891 28.7262 50.0869 20.624ZM37.4179 44.1942C37.4179 45.3727 36.534 46.2566 35.3555 46.2566C34.177 46.2566 33.2931 45.3727 33.2931 44.1942V37.4178H26.5166C25.3381 37.4178 24.4542 36.5339 24.4542 35.3554C24.4542 34.1768 25.3381 33.293 26.5166 33.293H33.2931V26.5165C33.2931 25.338 34.177 24.4541 35.3555 24.4541C36.534 24.4541 37.4179 25.338 37.4179 26.5165V33.293H44.1943C45.3728 33.293 46.2567 34.1768 46.2567 35.3554C46.2567 36.5339 45.3728 37.4178 44.1943 37.4178H37.4179V44.1942Z" fill="black"/>
</g>
<defs>
<clipPath id="clip0_22_508">
<rect width="50" height="50" fill="white" transform="translate(35.3555) rotate(45)"/>
</clipPath>
</defs>
</svg>
