<svg width="40" height="40" viewBox="0 0 40 40" fill="none" xmlns="http://www.w3.org/2000/svg">
<path d="M20 3.33337C22.1887 3.33337 24.3559 3.76447 26.378 4.60205C28.4001 5.43963 30.2374 6.66728 31.7851 8.21493C34.9107 11.3405 36.6666 15.5798 36.6666 20C36.6812 23.8486 35.3487 27.5809 32.9 30.55L36.2333 33.8834C36.4646 34.1177 36.6212 34.4154 36.6835 34.7387C36.7458 35.062 36.7109 35.3965 36.5833 35.7C36.4449 35.9999 36.2205 36.2519 35.9386 36.424C35.6567 36.5961 35.33 36.6806 35 36.6667H20C15.5797 36.6667 11.3405 34.9108 8.21487 31.7852C5.08926 28.6595 3.33331 24.4203 3.33331 20C3.33331 15.5798 5.08926 11.3405 8.21487 8.21493C11.3405 5.08932 15.5797 3.33337 20 3.33337V3.33337ZM20 33.3334H30.9833L29.4333 31.7834C29.1229 31.4711 28.9487 31.0487 28.9487 30.6084C28.9487 30.1681 29.1229 29.7456 29.4333 29.4334C31.6157 27.2534 32.9747 24.3843 33.2788 21.3147C33.583 18.2451 32.8134 15.1651 31.1013 12.5992C29.3891 10.0334 26.8403 8.14064 23.8891 7.24333C20.9379 6.34602 17.7669 6.49972 14.9163 7.67823C12.0657 8.85674 9.71189 10.9872 8.25592 13.7065C6.79994 16.4259 6.33186 19.5659 6.93143 22.5917C7.53101 25.6175 9.16113 28.3418 11.5441 30.3004C13.927 32.2591 16.9154 33.3309 20 33.3334V33.3334Z" fill="white"/>
</svg>
