<svg width="40" height="40" viewBox="0 0 40 40" fill="none" xmlns="http://www.w3.org/2000/svg">
<path d="M33.6 8.33332C31.8333 6.562 29.4914 5.48089 26.9972 5.28527C24.5031 5.08966 22.0213 5.79243 20 7.26666C17.8794 5.68939 15.24 4.97418 12.6132 5.26505C9.98643 5.55593 7.56741 6.83129 5.8433 8.8343C4.11919 10.8373 3.21805 13.4192 3.32135 16.06C3.42464 18.7008 4.52471 21.2044 6.40001 23.0667L16.75 33.4333C17.6167 34.2863 18.784 34.7643 20 34.7643C21.216 34.7643 22.3833 34.2863 23.25 33.4333L33.6 23.0667C35.546 21.1088 36.6382 18.4604 36.6382 15.7C36.6382 12.9395 35.546 10.2912 33.6 8.33332V8.33332ZM31.25 20.7667L20.9 31.1167C20.7822 31.2356 20.6421 31.33 20.4876 31.3944C20.3331 31.4588 20.1674 31.492 20 31.492C19.8326 31.492 19.6669 31.4588 19.5124 31.3944C19.358 31.33 19.2178 31.2356 19.1 31.1167L8.75001 20.7167C7.44294 19.3806 6.71103 17.5858 6.71103 15.7167C6.71103 13.8475 7.44294 12.0527 8.75001 10.7167C10.0819 9.40164 11.8783 8.66427 13.75 8.66427C15.6217 8.66427 17.4181 9.40164 18.75 10.7167C18.905 10.8729 19.0893 10.9969 19.2924 11.0815C19.4955 11.1661 19.7133 11.2097 19.9333 11.2097C20.1534 11.2097 20.3712 11.1661 20.5743 11.0815C20.7774 10.9969 20.9617 10.8729 21.1167 10.7167C22.4486 9.40164 24.245 8.66427 26.1167 8.66427C27.9884 8.66427 29.7848 9.40164 31.1167 10.7167C32.4417 12.0352 33.1977 13.8203 33.2226 15.6895C33.2475 17.5586 32.5394 19.3632 31.25 20.7167V20.7667Z" fill="white"/>
</svg>
