<svg width="50" height="50" viewBox="0 0 50 50" fill="none" xmlns="http://www.w3.org/2000/svg">
<path d="M41.6666 16.6667L29.1666 5.70835C28.0207 4.68344 26.5373 4.11682 25 4.11682C23.4626 4.11682 21.9792 4.68344 20.8333 5.70835L8.33329 16.6667C7.67155 17.2585 7.1435 17.9845 6.78427 18.7964C6.42504 19.6082 6.2429 20.4873 6.24995 21.375V39.5833C6.24995 41.2409 6.90843 42.8307 8.08054 44.0028C9.25264 45.1749 10.8424 45.8333 12.5 45.8333H37.5C39.1576 45.8333 40.7473 45.1749 41.9194 44.0028C43.0915 42.8307 43.75 41.2409 43.75 39.5833V21.3542C43.7541 20.4699 43.5705 19.5949 43.2113 18.7868C42.8522 17.9788 42.3257 17.2562 41.6666 16.6667V16.6667ZM29.1666 41.6667H20.8333V31.25C20.8333 30.6975 21.0528 30.1676 21.4435 29.7769C21.8342 29.3862 22.3641 29.1667 22.9166 29.1667H27.0833C27.6358 29.1667 28.1657 29.3862 28.5564 29.7769C28.9471 30.1676 29.1666 30.6975 29.1666 31.25V41.6667ZM39.5833 39.5833C39.5833 40.1359 39.3638 40.6658 38.9731 41.0565C38.5824 41.4472 38.0525 41.6667 37.5 41.6667H33.3333V31.25C33.3333 29.5924 32.6748 28.0027 31.5027 26.8306C30.3306 25.6585 28.7409 25 27.0833 25H22.9166C21.259 25 19.6693 25.6585 18.4972 26.8306C17.3251 28.0027 16.6666 29.5924 16.6666 31.25V41.6667H12.5C11.9474 41.6667 11.4175 41.4472 11.0268 41.0565C10.6361 40.6658 10.4166 40.1359 10.4166 39.5833V21.3542C10.417 21.0584 10.4804 20.766 10.6025 20.4966C10.7246 20.2272 10.9027 19.9869 11.125 19.7917L23.625 8.85418C24.0051 8.52018 24.4939 8.33598 25 8.33598C25.506 8.33598 25.9948 8.52018 26.375 8.85418L38.875 19.7917C39.0972 19.9869 39.2753 20.2272 39.3974 20.4966C39.5196 20.766 39.5829 21.0584 39.5833 21.3542V39.5833Z" fill="black"/>
</svg>
