<svg width="50" height="50" viewBox="0 0 50 50" fill="none" xmlns="http://www.w3.org/2000/svg">
<path d="M45.2292 42.2709L37.5 34.6042C40.5003 30.8634 41.9532 26.1153 41.5601 21.3361C41.167 16.5569 38.9577 12.11 35.3865 8.90972C31.8154 5.70943 27.1538 3.99902 22.3603 4.13019C17.5668 4.26136 13.0057 6.22413 9.61492 9.61492C6.22413 13.0057 4.26136 17.5668 4.13019 22.3603C3.99902 27.1538 5.70943 31.8154 8.90972 35.3865C12.11 38.9577 16.5569 41.167 21.3361 41.5601C26.1153 41.9532 30.8634 40.5003 34.6042 37.5L42.2709 45.1667C42.4646 45.362 42.695 45.517 42.9488 45.6227C43.2027 45.7285 43.475 45.783 43.75 45.783C44.0251 45.783 44.2974 45.7285 44.5513 45.6227C44.8051 45.517 45.0355 45.362 45.2292 45.1667C45.6047 44.7782 45.8146 44.2591 45.8146 43.7188C45.8146 43.1785 45.6047 42.6594 45.2292 42.2709V42.2709ZM22.9167 37.5C20.0324 37.5 17.2129 36.6448 14.8146 35.0423C12.4164 33.4399 10.5472 31.1623 9.44347 28.4975C8.33969 25.8328 8.05089 22.9005 8.61359 20.0716C9.17629 17.2428 10.5652 14.6443 12.6047 12.6047C14.6443 10.5652 17.2428 9.17629 20.0716 8.61359C22.9005 8.05089 25.8328 8.33969 28.4975 9.44347C31.1623 10.5472 33.4399 12.4164 35.0423 14.8146C36.6448 17.2129 37.5 20.0324 37.5 22.9167C37.5 26.7845 35.9636 30.4938 33.2287 33.2287C30.4938 35.9636 26.7845 37.5 22.9167 37.5V37.5Z" fill="black"/>
</svg>
