<svg width="40" height="40" viewBox="0 0 40 40" fill="none" xmlns="http://www.w3.org/2000/svg">
<path d="M33.9 15.5333L10.5667 3.86668C9.6458 3.40836 8.60601 3.24519 7.58904 3.39943C6.57207 3.55367 5.62742 4.01779 4.88387 4.72854C4.14032 5.43928 3.63407 6.36205 3.43414 7.37103C3.23421 8.38001 3.35032 9.4261 3.76665 10.3667L7.76665 19.3167C7.85741 19.5331 7.90416 19.7654 7.90416 20C7.90416 20.2347 7.85741 20.467 7.76665 20.6833L3.76665 29.6333C3.42782 30.3945 3.28458 31.2283 3.34995 32.059C3.41532 32.8896 3.68722 33.6907 4.14095 34.3895C4.59469 35.0883 5.21586 35.6627 5.94802 36.0604C6.68019 36.4581 7.50012 36.6665 8.33332 36.6667C9.1137 36.6589 9.88247 36.4767 10.5833 36.1333L33.9167 24.4667C34.7443 24.0503 35.44 23.4122 35.9261 22.6235C36.4123 21.8348 36.6697 20.9265 36.6697 20C36.6697 19.0735 36.4123 18.1653 35.9261 17.3765C35.44 16.5878 34.7443 15.9497 33.9167 15.5333H33.9ZM32.4167 21.4833L9.08332 33.15C8.77692 33.2971 8.43287 33.3471 8.0973 33.2931C7.76172 33.2391 7.45067 33.0839 7.20584 32.8481C6.96101 32.6123 6.79412 32.3074 6.72754 31.9741C6.66095 31.6408 6.69786 31.2951 6.83332 30.9833L10.8167 22.0333C10.8682 21.9138 10.9127 21.7914 10.95 21.6667H22.4333C22.8753 21.6667 23.2993 21.4911 23.6118 21.1785C23.9244 20.866 24.1 20.442 24.1 20C24.1 19.558 23.9244 19.1341 23.6118 18.8215C23.2993 18.5089 22.8753 18.3333 22.4333 18.3333H10.95C10.9127 18.2086 10.8682 18.0862 10.8167 17.9667L6.83332 9.01668C6.69786 8.70495 6.66095 8.35926 6.72754 8.02596C6.79412 7.69266 6.96101 7.38768 7.20584 7.15192C7.45067 6.91616 7.76172 6.76089 8.0973 6.70693C8.43287 6.65297 8.77692 6.70289 9.08332 6.85001L32.4167 18.5167C32.6897 18.6565 32.9188 18.869 33.0787 19.1308C33.2387 19.3925 33.3234 19.6933 33.3234 20C33.3234 20.3068 33.2387 20.6075 33.0787 20.8693C32.9188 21.131 32.6897 21.3435 32.4167 21.4833V21.4833Z" fill="white"/>
</svg>
